<?xml version="1.0" standalone="no"?>
<!DOCTYPE svg PUBLIC "-//W3C//DTD SVG 20010904//EN"
 "http://www.w3.org/TR/2001/REC-SVG-20010904/DTD/svg10.dtd">
<svg version="1.0" xmlns="http://www.w3.org/2000/svg"
 width="335.000000pt" height="335.000000pt" viewBox="0 0 335.000000 335.000000"
 preserveAspectRatio="xMidYMid meet">
<metadata>
Created by potrace 1.11, written by Peter Selinger 2001-2013
</metadata>
<g transform="translate(0.000000,335.000000) scale(0.100000,-0.100000)"
fill="#000000" stroke="none">
<path d="M230 1715 l0 -935 150 0 150 0 0 595 c0 327 3 595 8 595 8 0 8 1 317
-590 125 -239 247 -472 272 -518 l45 -82 159 0 159 0 0 85 c0 47 3 85 8 84 4
0 23 -22 43 -48 45 -59 141 -124 213 -145 80 -24 145 -20 229 11 60 23 84 40
147 103 82 81 127 158 161 277 45 158 49 436 9 598 -57 231 -201 385 -388 417
-128 22 -233 -14 -340 -115 l-62 -60 0 331 0 332 -155 0 -155 0 0 -609 c0
-336 -4 -612 -8 -615 -5 -3 -54 84 -110 192 -56 108 -142 274 -190 367 -49 94
-130 251 -181 350 -52 99 -110 210 -130 247 l-36 68 -157 0 -158 0 0 -935z
m1631 148 c89 -48 131 -136 151 -320 20 -174 -10 -343 -78 -435 -101 -140
-288 -109 -372 60 -38 76 -47 132 -47 302 0 146 3 173 23 231 56 164 194 233
323 162z"/>
<path d="M2915 2156 c-44 -16 -135 -108 -155 -157 -20 -48 -29 -34 -32 52 l-3
81 -140 0 -140 0 -3 -676 -2 -676 155 0 155 0 0 328 c1 492 15 600 90 685 33
37 41 41 96 45 49 3 67 -1 106 -22 29 -15 50 -21 54 -15 3 6 26 74 50 152 41
133 42 143 26 156 -63 49 -187 72 -257 47z"/>
</g>
</svg>
