<?xml version="1.0" standalone="no"?>
<!DOCTYPE svg PUBLIC "-//W3C//DTD SVG 20010904//EN"
 "http://www.w3.org/TR/2001/REC-SVG-20010904/DTD/svg10.dtd">
<svg version="1.0" xmlns="http://www.w3.org/2000/svg"
 width="470.000000pt" height="470.000000pt" viewBox="0 0 470.000000 470.000000"
 preserveAspectRatio="xMidYMid meet">
<metadata>
Created by potrace 1.11, written by Peter Selinger 2001-2013
</metadata>
<g transform="translate(0.000000,470.000000) scale(0.100000,-0.100000)"
fill="#000000" stroke="none">
<path d="M0 2350 l0 -2350 2350 0 2350 0 0 2350 0 2350 -2350 0 -2350 0 0
-2350z m788 1733 c11 -27 63 -154 115 -283 52 -129 129 -318 170 -420 41 -102
128 -315 192 -475 64 -159 141 -348 170 -420 29 -71 87 -215 130 -320 104
-257 108 -266 117 -257 4 4 9 505 10 1112 l3 1105 228 3 227 2 0 -594 c0 -327
4 -597 8 -600 4 -2 19 12 32 32 182 276 435 355 684 216 139 -78 267 -257 340
-475 116 -347 133 -863 44 -1303 -55 -274 -185 -512 -348 -638 -101 -77 -172
-101 -293 -96 -80 3 -100 7 -159 37 -38 19 -68 38 -68 42 0 5 -4 9 -10 9 -15
0 -110 92 -150 145 -20 28 -49 72 -65 98 -20 35 -30 45 -36 35 -5 -7 -9 -79
-9 -160 l0 -148 -233 0 -232 0 -12 27 c-18 41 -153 370 -234 573 -39 96 -77
189 -84 205 -8 17 -43 102 -79 190 -35 88 -92 228 -126 310 -248 606 -331 809
-342 838 -5 15 -14 27 -19 27 -5 0 -10 -452 -11 -1082 l-3 -1083 -210 0 -210
0 -3 1685 c-1 927 0 1691 3 1698 3 9 57 12 223 12 l218 0 22 -47z m3543 -900
c59 -23 132 -69 147 -93 9 -15 8 -36 -7 -97 -66 -274 -101 -424 -101 -438 0
-28 -28 -28 -64 0 -88 67 -159 81 -232 46 -98 -48 -153 -175 -185 -426 -7 -55
-14 -363 -18 -790 l-6 -700 -213 0 -212 0 -3 1227 c-2 1015 0 1229 11 1233 19
7 357 6 376 -1 14 -5 16 -28 16 -150 0 -79 4 -144 8 -144 4 0 30 46 57 102 70
144 161 234 255 252 41 7 122 -3 171 -21z"/>
<path d="M2500 2753 c-99 -12 -163 -55 -225 -153 -62 -97 -87 -174 -110 -339
-28 -199 -13 -559 30 -726 32 -126 109 -260 178 -311 81 -60 156 -77 211 -49
15 8 34 15 40 15 16 0 81 64 116 115 84 123 130 351 130 644 0 471 -107 746
-310 798 -19 5 -46 7 -60 6z"/>
</g>
</svg>
